<mxfile host="app.diagrams.net" modified="2022-04-05T12:11:52.727Z" agent="5.0 (Macintosh; Intel Mac OS X 10_15_7) AppleWebKit/537.36 (KHTML, like Gecko) Chrome/99.0.4844.84 Safari/537.36" etag="a7wyXqSZFGow9ZANqUSJ" version="17.4.0" type="github">
  <diagram id="4yJ9FQ-joyVl6LCnXG7c" name="Page-1">
    <mxGraphModel dx="946" dy="532" grid="1" gridSize="10" guides="1" tooltips="1" connect="1" arrows="1" fold="1" page="1" pageScale="1" pageWidth="827" pageHeight="1169" math="0" shadow="0">
      <root>
        <mxCell id="0" />
        <mxCell id="1" parent="0" />
        <mxCell id="iWaWM1FKnLoMPcqjOOxX-2" value="" style="rounded=0;whiteSpace=wrap;html=1;" parent="1" vertex="1">
          <mxGeometry x="180" y="50" width="400" height="660" as="geometry" />
        </mxCell>
        <mxCell id="iWaWM1FKnLoMPcqjOOxX-7" style="edgeStyle=orthogonalEdgeStyle;rounded=0;orthogonalLoop=1;jettySize=auto;html=1;entryX=0;entryY=0.5;entryDx=0;entryDy=0;" parent="1" source="CKJTdGQZak-YGsDTWvtC-1" target="CKJTdGQZak-YGsDTWvtC-14" edge="1">
          <mxGeometry relative="1" as="geometry">
            <Array as="points">
              <mxPoint x="250" y="110" />
              <mxPoint x="250" y="128" />
            </Array>
          </mxGeometry>
        </mxCell>
        <mxCell id="iWaWM1FKnLoMPcqjOOxX-10" style="edgeStyle=orthogonalEdgeStyle;rounded=0;orthogonalLoop=1;jettySize=auto;html=1;entryX=0;entryY=0.5;entryDx=0;entryDy=0;" parent="1" source="CKJTdGQZak-YGsDTWvtC-1" target="CKJTdGQZak-YGsDTWvtC-9" edge="1">
          <mxGeometry relative="1" as="geometry">
            <Array as="points">
              <mxPoint x="250" y="110" />
              <mxPoint x="250" y="280" />
            </Array>
          </mxGeometry>
        </mxCell>
        <mxCell id="iWaWM1FKnLoMPcqjOOxX-11" style="edgeStyle=orthogonalEdgeStyle;rounded=0;orthogonalLoop=1;jettySize=auto;html=1;entryX=0;entryY=0.5;entryDx=0;entryDy=0;" parent="1" source="CKJTdGQZak-YGsDTWvtC-1" target="CKJTdGQZak-YGsDTWvtC-8" edge="1">
          <mxGeometry relative="1" as="geometry">
            <Array as="points">
              <mxPoint x="250" y="110" />
              <mxPoint x="250" y="350" />
            </Array>
          </mxGeometry>
        </mxCell>
        <mxCell id="iWaWM1FKnLoMPcqjOOxX-13" style="edgeStyle=orthogonalEdgeStyle;rounded=0;orthogonalLoop=1;jettySize=auto;html=1;entryX=0;entryY=0.5;entryDx=0;entryDy=0;" parent="1" source="CKJTdGQZak-YGsDTWvtC-1" target="CKJTdGQZak-YGsDTWvtC-11" edge="1">
          <mxGeometry relative="1" as="geometry">
            <Array as="points">
              <mxPoint x="250" y="110" />
              <mxPoint x="250" y="205" />
            </Array>
          </mxGeometry>
        </mxCell>
        <mxCell id="iWaWM1FKnLoMPcqjOOxX-24" style="edgeStyle=orthogonalEdgeStyle;rounded=0;orthogonalLoop=1;jettySize=auto;html=1;entryX=0;entryY=0.5;entryDx=0;entryDy=0;" parent="1" source="CKJTdGQZak-YGsDTWvtC-1" target="CKJTdGQZak-YGsDTWvtC-6" edge="1">
          <mxGeometry relative="1" as="geometry">
            <Array as="points">
              <mxPoint x="250" y="110" />
              <mxPoint x="250" y="405" />
            </Array>
          </mxGeometry>
        </mxCell>
        <mxCell id="CKJTdGQZak-YGsDTWvtC-1" value="Requester" style="shape=umlActor;verticalLabelPosition=bottom;verticalAlign=top;html=1;outlineConnect=0;" parent="1" vertex="1">
          <mxGeometry x="70" y="80" width="30" height="60" as="geometry" />
        </mxCell>
        <mxCell id="CKJTdGQZak-YGsDTWvtC-23" style="edgeStyle=orthogonalEdgeStyle;rounded=0;orthogonalLoop=1;jettySize=auto;html=1;entryX=0;entryY=0.5;entryDx=0;entryDy=0;" parent="1" source="CKJTdGQZak-YGsDTWvtC-2" target="CKJTdGQZak-YGsDTWvtC-12" edge="1">
          <mxGeometry relative="1" as="geometry">
            <Array as="points">
              <mxPoint x="220" y="460" />
              <mxPoint x="220" y="605" />
            </Array>
          </mxGeometry>
        </mxCell>
        <mxCell id="CKJTdGQZak-YGsDTWvtC-24" style="edgeStyle=orthogonalEdgeStyle;rounded=0;orthogonalLoop=1;jettySize=auto;html=1;entryX=0;entryY=0.5;entryDx=0;entryDy=0;" parent="1" source="CKJTdGQZak-YGsDTWvtC-2" target="CKJTdGQZak-YGsDTWvtC-13" edge="1">
          <mxGeometry relative="1" as="geometry">
            <Array as="points">
              <mxPoint x="220" y="460" />
              <mxPoint x="220" y="553" />
            </Array>
          </mxGeometry>
        </mxCell>
        <mxCell id="iWaWM1FKnLoMPcqjOOxX-18" style="edgeStyle=orthogonalEdgeStyle;rounded=0;orthogonalLoop=1;jettySize=auto;html=1;entryX=1;entryY=0.5;entryDx=0;entryDy=0;" parent="1" source="CKJTdGQZak-YGsDTWvtC-2" target="CKJTdGQZak-YGsDTWvtC-8" edge="1">
          <mxGeometry relative="1" as="geometry">
            <Array as="points">
              <mxPoint x="510" y="460" />
              <mxPoint x="510" y="350" />
            </Array>
          </mxGeometry>
        </mxCell>
        <mxCell id="iWaWM1FKnLoMPcqjOOxX-21" style="edgeStyle=orthogonalEdgeStyle;rounded=0;orthogonalLoop=1;jettySize=auto;html=1;entryX=1;entryY=0.5;entryDx=0;entryDy=0;" parent="1" source="CKJTdGQZak-YGsDTWvtC-2" target="CKJTdGQZak-YGsDTWvtC-9" edge="1">
          <mxGeometry relative="1" as="geometry">
            <Array as="points">
              <mxPoint x="510" y="460" />
              <mxPoint x="510" y="280" />
            </Array>
          </mxGeometry>
        </mxCell>
        <mxCell id="iWaWM1FKnLoMPcqjOOxX-23" style="edgeStyle=orthogonalEdgeStyle;rounded=0;orthogonalLoop=1;jettySize=auto;html=1;entryX=0;entryY=0.5;entryDx=0;entryDy=0;" parent="1" source="CKJTdGQZak-YGsDTWvtC-2" target="CKJTdGQZak-YGsDTWvtC-15" edge="1">
          <mxGeometry relative="1" as="geometry">
            <Array as="points">
              <mxPoint x="220" y="460" />
              <mxPoint x="220" y="673" />
            </Array>
          </mxGeometry>
        </mxCell>
        <mxCell id="iWaWM1FKnLoMPcqjOOxX-25" style="edgeStyle=orthogonalEdgeStyle;rounded=0;orthogonalLoop=1;jettySize=auto;html=1;entryX=1;entryY=0.5;entryDx=0;entryDy=0;" parent="1" source="CKJTdGQZak-YGsDTWvtC-2" target="CKJTdGQZak-YGsDTWvtC-6" edge="1">
          <mxGeometry relative="1" as="geometry">
            <Array as="points">
              <mxPoint x="510" y="460" />
              <mxPoint x="510" y="405" />
            </Array>
          </mxGeometry>
        </mxCell>
        <mxCell id="iWaWM1FKnLoMPcqjOOxX-26" style="edgeStyle=orthogonalEdgeStyle;rounded=0;orthogonalLoop=1;jettySize=auto;html=1;entryX=0;entryY=0.5;entryDx=0;entryDy=0;" parent="1" source="CKJTdGQZak-YGsDTWvtC-2" target="CKJTdGQZak-YGsDTWvtC-10" edge="1">
          <mxGeometry relative="1" as="geometry">
            <Array as="points">
              <mxPoint x="220" y="460" />
              <mxPoint x="220" y="505" />
            </Array>
          </mxGeometry>
        </mxCell>
        <mxCell id="CKJTdGQZak-YGsDTWvtC-2" value="Expert" style="shape=umlActor;verticalLabelPosition=bottom;verticalAlign=top;html=1;outlineConnect=0;" parent="1" vertex="1">
          <mxGeometry x="70" y="420" width="30" height="60" as="geometry" />
        </mxCell>
        <mxCell id="CKJTdGQZak-YGsDTWvtC-8" value="Edit user information" style="ellipse;whiteSpace=wrap;html=1;" parent="1" vertex="1">
          <mxGeometry x="369" y="330" width="90" height="40" as="geometry" />
        </mxCell>
        <mxCell id="CKJTdGQZak-YGsDTWvtC-9" value="Log into an app account" style="ellipse;whiteSpace=wrap;html=1;" parent="1" vertex="1">
          <mxGeometry x="349" y="260" width="120" height="40" as="geometry" />
        </mxCell>
        <mxCell id="CKJTdGQZak-YGsDTWvtC-10" value="Edit expert categories" style="ellipse;whiteSpace=wrap;html=1;" parent="1" vertex="1">
          <mxGeometry x="369" y="490" width="131" height="30" as="geometry" />
        </mxCell>
        <mxCell id="CKJTdGQZak-YGsDTWvtC-11" value="Submit a help request" style="ellipse;whiteSpace=wrap;html=1;" parent="1" vertex="1">
          <mxGeometry x="349" y="180" width="120" height="50" as="geometry" />
        </mxCell>
        <mxCell id="CKJTdGQZak-YGsDTWvtC-12" value="Choose and accept request" style="ellipse;whiteSpace=wrap;html=1;" parent="1" vertex="1">
          <mxGeometry x="374.5" y="580" width="120" height="50" as="geometry" />
        </mxCell>
        <mxCell id="CKJTdGQZak-YGsDTWvtC-13" value="Provide help" style="ellipse;whiteSpace=wrap;html=1;" parent="1" vertex="1">
          <mxGeometry x="384.5" y="540" width="100" height="25" as="geometry" />
        </mxCell>
        <mxCell id="CKJTdGQZak-YGsDTWvtC-14" value="Look up requester history" style="ellipse;whiteSpace=wrap;html=1;" parent="1" vertex="1">
          <mxGeometry x="359" y="100" width="110" height="55" as="geometry" />
        </mxCell>
        <mxCell id="CKJTdGQZak-YGsDTWvtC-15" value="Look up expert history" style="ellipse;whiteSpace=wrap;html=1;" parent="1" vertex="1">
          <mxGeometry x="369" y="650" width="120" height="45" as="geometry" />
        </mxCell>
        <mxCell id="CKJTdGQZak-YGsDTWvtC-6" value="Register an account" style="ellipse;whiteSpace=wrap;html=1;verticalAlign=middle;" parent="1" vertex="1">
          <mxGeometry x="339" y="390" width="120" height="30" as="geometry" />
        </mxCell>
      </root>
    </mxGraphModel>
  </diagram>
</mxfile>
